<?xml version="1.0" standalone="no"?>
<!DOCTYPE svg PUBLIC "-//W3C//DTD SVG 20010904//EN"
 "http://www.w3.org/TR/2001/REC-SVG-20010904/DTD/svg10.dtd">
<svg version="1.0" xmlns="http://www.w3.org/2000/svg"
 width="3301.000000pt" height="3301.000000pt" viewBox="0 0 3301.000000 3301.000000"
 preserveAspectRatio="xMidYMid meet">
<metadata>
Created by potrace 1.14, written by Peter Selinger 2001-2017
</metadata>
<g transform="translate(0.000000,3301.000000) scale(0.100000,-0.100000)"
fill="#000000" stroke="none">
<path d="M3527 23774 c-1 -1 -45 -5 -97 -9 -52 -4 -106 -8 -120 -10 -63 -8
-120 -16 -141 -20 -13 -3 -37 -8 -54 -10 -16 -3 -37 -8 -45 -10 -8 -2 -30 -7
-49 -10 -19 -3 -37 -8 -41 -10 -4 -2 -22 -7 -40 -10 -52 -9 -298 -93 -326
-111 -13 -9 -24 -13 -24 -10 0 10 -218 -105 -301 -159 -314 -203 -568 -496
-753 -873 -25 -51 -46 -95 -46 -98 0 -3 -8 -24 -19 -47 -19 -43 -72 -184 -75
-202 -1 -5 -5 -15 -8 -21 -4 -6 -9 -21 -12 -35 -7 -34 -12 -55 -31 -126 -15
-60 -19 -77 -30 -133 -3 -14 -7 -36 -10 -50 -3 -14 -7 -36 -10 -50 -2 -14 -6
-38 -9 -55 -6 -35 -17 -124 -22 -180 -2 -22 -7 -71 -11 -110 -9 -95 -11
-11852 -1 -11890 17 -65 -156 -60 1961 -60 1057 -1 1934 2 1950 6 33 9 52 27
63 59 4 14 9 1557 9 3430 1 1873 4 3412 6 3420 5 17 19 30 35 30 7 0 60 -60
120 -132 60 -73 153 -187 208 -253 54 -66 106 -129 115 -140 68 -84 207 -251
211 -255 3 -3 19 -23 36 -45 16 -22 34 -44 40 -50 6 -5 53 -62 105 -125 51
-63 103 -126 115 -140 17 -20 572 -694 617 -750 7 -8 55 -67 108 -130 52 -63
266 -322 474 -575 208 -253 387 -469 396 -480 10 -11 94 -112 186 -225 203
-247 940 -1141 1068 -1295 50 -60 188 -227 306 -370 207 -252 335 -407 405
-490 145 -174 457 -553 502 -610 31 -38 58 -72 61 -75 4 -3 22 -25 41 -50 51
-67 53 -68 125 -155 234 -280 449 -452 750 -600 131 -64 338 -144 415 -159 14
-3 35 -7 48 -10 51 -13 109 -25 156 -32 21 -3 48 -7 60 -10 114 -22 525 -22
641 0 11 2 45 7 76 10 31 4 67 9 80 12 13 2 40 7 59 9 19 3 46 8 60 11 14 3
34 8 45 10 11 2 47 11 80 19 33 9 67 17 75 19 61 15 167 50 174 57 6 5 16 9
24 9 28 0 332 148 332 162 0 4 5 8 11 8 10 0 117 66 129 80 3 3 30 25 60 49
197 153 416 413 562 666 70 121 196 395 181 395 -3 0 -1 6 4 13 15 18 82 245
99 332 2 11 8 43 14 70 13 67 21 113 25 155 2 19 6 49 9 65 11 64 19 197 21
370 5 423 6 5762 1 5785 -3 14 -8 37 -11 53 -22 118 -99 223 -296 401 -51 47
-210 194 -414 385 -49 47 -102 96 -116 110 -14 14 -67 63 -117 109 -50 46
-121 113 -159 149 -37 35 -93 88 -123 116 -30 28 -115 107 -188 176 -74 69
-146 137 -161 151 -15 14 -99 93 -186 176 -88 83 -176 166 -195 184 -41 38
-162 152 -280 264 -47 45 -159 151 -250 236 -90 85 -210 198 -265 251 -55 53
-113 109 -130 123 -16 15 -64 60 -105 99 -42 40 -121 114 -175 166 -55 52
-131 124 -170 161 -38 36 -146 138 -240 225 -93 87 -197 185 -230 216 -74 71
-115 104 -138 112 -22 8 -57 -25 -58 -55 -1 -13 -2 -1155 -3 -2538 -1 -1383
-5 -2525 -10 -2537 -4 -13 -14 -23 -23 -23 -20 0 -32 14 -226 265 -161 208
-314 404 -1012 1300 -197 253 -376 483 -397 510 -21 28 -42 55 -46 60 -5 6
-82 105 -172 220 -90 116 -190 242 -222 282 -32 39 -58 76 -58 81 0 6 -3 12
-8 14 -10 4 -56 61 -192 238 -44 58 -86 112 -93 120 -7 8 -77 98 -156 200 -80
102 -206 263 -280 359 -75 95 -145 185 -156 200 -16 21 -143 183 -188 241 -7
8 -26 33 -42 55 -16 22 -32 42 -35 45 -3 3 -93 118 -200 255 -107 138 -197
252 -200 255 -3 3 -34 43 -70 90 -35 47 -100 130 -143 185 -43 55 -84 107 -90
115 -7 8 -28 35 -47 60 -19 25 -41 52 -47 60 -7 8 -41 52 -75 96 -35 45 -93
119 -129 165 -277 354 -444 568 -557 714 -73 94 -138 177 -146 186 -7 8 -46
58 -87 110 -40 52 -78 99 -84 105 -5 6 -37 41 -70 79 -96 108 -227 232 -353
332 -68 54 -208 153 -216 153 -3 0 -24 13 -48 29 -49 33 -259 136 -318 156 -3
1 -18 7 -35 14 -81 34 -258 85 -330 97 -22 3 -42 7 -45 9 -6 4 -69 14 -123 20
-18 2 -59 7 -92 10 -55 7 -343 14 -348 9z"/>
<path d="M10811 23549 c-61 -8 -77 -31 -77 -109 l1 -62 1952 -1951 c1073
-1074 1969 -1969 1990 -1989 l38 -37 -1 2072 c-1 1140 -2 2074 -3 2077 -2 7
-3847 6 -3900 -1z"/>
<path d="M16162 23550 c-4 -3 -8 -1163 -7 -2578 l0 -2574 50 -45 c28 -25 84
-77 125 -117 42 -39 114 -107 161 -151 144 -136 430 -406 514 -486 44 -42 100
-95 125 -118 59 -55 365 -345 519 -491 9 -9 102 -97 206 -195 105 -99 196
-188 203 -197 7 -9 20 -24 29 -33 28 -29 6 -74 -72 -144 -38 -35 -90 -83 -115
-105 -25 -23 -153 -140 -285 -261 -132 -120 -265 -241 -295 -269 -30 -28 -125
-114 -210 -191 -85 -76 -173 -156 -195 -176 -22 -21 -62 -57 -90 -82 -165
-146 -263 -232 -355 -312 -212 -182 -275 -266 -306 -407 -3 -13 -8 -34 -11
-48 -4 -14 -5 -243 -3 -510 10 -1383 4 -2459 -15 -2705 -5 -73 -17 -190 -21
-210 -2 -11 -6 -38 -9 -60 -3 -22 -7 -51 -10 -65 -3 -13 -7 -42 -11 -65 -6
-42 -7 -43 -17 -90 -4 -16 -9 -42 -11 -58 -3 -15 -7 -35 -10 -45 -3 -9 -7 -28
-10 -42 -2 -14 -14 -63 -26 -110 -12 -47 -23 -93 -25 -103 -2 -9 -6 -21 -9
-25 -3 -5 -7 -19 -10 -33 -7 -41 -63 -200 -116 -335 -45 -112 -125 -281 -238
-500 -35 -67 -40 -105 -17 -124 17 -14 158 -18 213 -6 87 18 181 91 455 352
12 12 126 115 252 229 304 275 344 311 655 590 146 131 288 259 316 284 28 25
68 62 90 81 148 133 261 234 339 305 50 45 119 108 155 140 36 32 85 76 110
99 25 22 86 77 135 121 49 44 96 87 105 95 9 8 76 69 150 135 74 65 145 130
157 142 12 13 25 23 28 23 3 0 16 11 28 24 12 13 92 85 177 161 85 76 175 157
200 179 25 23 227 205 450 405 223 200 410 369 415 375 6 6 71 65 145 131 74
66 137 122 140 125 3 3 77 70 165 150 88 79 162 147 165 150 3 3 37 33 75 67
77 68 124 92 161 85 25 -4 99 -65 199 -163 64 -62 126 -121 299 -282 59 -56
127 -120 150 -142 24 -22 94 -87 156 -145 62 -58 140 -131 174 -163 33 -33 88
-84 121 -115 33 -32 130 -123 215 -203 85 -81 180 -170 210 -199 103 -97 270
-255 348 -328 90 -87 166 -159 317 -301 61 -57 180 -169 265 -250 85 -81 241
-228 345 -326 105 -98 226 -213 270 -254 101 -95 382 -359 453 -426 30 -27 66
-62 80 -76 15 -14 65 -61 112 -105 47 -43 157 -146 245 -229 198 -187 294
-277 309 -290 6 -5 56 -53 111 -105 252 -240 301 -283 346 -306 112 -56 -89
-53 3106 -53 1978 0 2963 3 2994 10 26 6 55 19 64 29 16 17 15 20 -12 47 -15
16 -50 46 -78 68 -27 21 -59 47 -70 56 -106 91 -170 150 -365 338 -253 244
-316 304 -550 521 -91 85 -217 202 -280 261 -151 142 -215 202 -357 334 -112
105 -154 144 -338 317 -44 41 -154 144 -245 228 -91 85 -189 177 -219 205 -73
68 -108 100 -177 165 -33 30 -127 118 -209 195 -82 77 -181 169 -220 205 -38
36 -101 95 -140 131 -38 36 -108 102 -155 146 -47 43 -116 109 -155 145 -38
36 -83 78 -100 93 -16 15 -88 81 -160 148 -71 67 -163 154 -204 192 -42 39
-109 102 -151 140 -41 39 -106 100 -145 136 -38 36 -106 99 -150 141 -44 42
-93 88 -110 103 -39 35 -366 339 -404 376 -9 8 -124 116 -256 239 -132 122
-250 232 -261 244 -12 12 -63 59 -114 106 -50 47 -106 99 -123 115 -18 17 -97
91 -177 165 -80 74 -183 171 -230 215 -47 44 -148 139 -225 211 -77 72 -169
158 -205 191 -36 34 -78 74 -95 89 -26 24 -163 152 -415 390 -75 71 -165 155
-340 319 -111 105 -218 205 -272 257 -39 38 -46 62 -25 89 7 8 71 66 142 128
72 62 144 125 160 140 63 58 702 618 970 850 154 134 312 271 350 305 39 35
174 154 300 266 127 112 248 220 270 241 22 20 114 104 205 185 91 82 185 167
210 190 25 22 146 132 270 244 124 112 279 254 345 315 137 125 264 241 445
405 69 62 168 153 220 200 52 48 109 100 125 114 17 15 44 40 60 55 17 15 82
74 145 131 63 57 117 106 120 109 3 3 45 42 95 86 111 99 733 664 795 721 25
23 56 52 70 64 14 12 66 58 115 104 50 45 196 179 325 296 129 118 258 235
285 261 28 25 181 164 340 309 160 145 308 279 330 299 22 21 180 163 350 316
171 153 321 289 334 301 28 28 23 69 -12 80 -31 11 -5443 12 -5492 1 -22 -5
-50 -11 -63 -13 -51 -10 -128 -65 -225 -160 -56 -55 -183 -174 -282 -264 -99
-89 -225 -204 -280 -254 -55 -50 -131 -120 -170 -155 -134 -122 -171 -156
-241 -221 -39 -36 -101 -92 -139 -125 -38 -33 -78 -70 -89 -81 -18 -18 -120
-111 -310 -284 -22 -19 -51 -46 -66 -60 -14 -14 -49 -45 -76 -69 -27 -25 -76
-70 -110 -100 -33 -31 -96 -87 -139 -126 -43 -38 -85 -77 -94 -86 -9 -9 -176
-161 -371 -339 -195 -178 -398 -362 -450 -410 -52 -48 -207 -190 -345 -315
-374 -341 -433 -394 -504 -461 -36 -33 -91 -82 -121 -110 -30 -27 -59 -54 -65
-60 -5 -6 -93 -87 -195 -180 -101 -93 -194 -177 -205 -188 -79 -72 -126 -87
-178 -56 -15 10 -112 96 -214 191 -102 96 -202 190 -223 209 -71 65 -263 245
-279 261 -9 8 -88 82 -176 164 -88 82 -189 177 -225 211 -36 33 -92 85 -124
115 -32 30 -78 72 -101 94 -23 22 -69 65 -101 95 -91 84 -358 333 -451 420
-62 58 -306 286 -397 370 -39 36 -102 95 -141 131 -38 36 -108 101 -155 145
-181 168 -504 469 -590 550 -30 28 -91 85 -135 125 -86 80 -159 148 -245 229
-30 28 -84 79 -120 112 -200 186 -450 421 -558 523 -46 44 -107 95 -135 113
-45 28 -70 38 -147 59 -23 7 -500 9 -508 3z"/>
</g>
</svg>
